<svg xmlns="http://www.w3.org/2000/svg" viewBox="0 0 46 52"><defs><style>.cls-1{fill:#fff;}</style></defs><title>Asset 1</title><g id="Layer_2" data-name="Layer 2"><g id="Layer_1-2" data-name="Layer 1"><g id="Page-1"><g id="Artboard"><g id="Group-7"><path class="cls-1" d="M23,0C10.29,0,0,1.37,0,11V38.32a8,8,0,0,0,2.88,6.07v4.87A2.81,2.81,0,0,0,5.75,52H8.62a2.82,2.82,0,0,0,2.88-2.74V46.53h23v2.73A2.82,2.82,0,0,0,37.38,52h2.87a2.81,2.81,0,0,0,2.87-2.74V44.39A8,8,0,0,0,46,38.32V11C46,1.37,35.71,0,23,0ZM10.06,41a4.11,4.11,0,1,1,0-8.21,4.11,4.11,0,1,1,0,8.21Zm25.88,0A4.11,4.11,0,1,1,40.25,37,4.21,4.21,0,0,1,35.94,41Zm4.31-16.42H36a3.42,3.42,0,0,0-6.84,0H5.75V11h34.5Z"/></g></g></g></g></g></svg>